<?xml version="1.0" encoding="UTF-8" standalone="no" ?>
<!DOCTYPE svg PUBLIC "-//W3C//DTD SVG 1.1//EN" "http://www.w3.org/Graphics/SVG/1.1/DTD/svg11.dtd">
<svg xmlns="http://www.w3.org/2000/svg" xmlns:xlink="http://www.w3.org/1999/xlink" version="1.1" width="100pt" height="100pt" viewBox="0 0 100 100" xml:space="preserve">
<desc>Created with Fabric.js 5.3.0</desc>
<defs>
</defs>
<g transform="matrix(0.4400370856 0 0 1.4381798906 25.5225157445 50)" id="ENyDF9PHfXAs11ccdi5s9"  >
<linearGradient id="SVGID_175_0_0" gradientUnits="userSpaceOnUse" gradientTransform="matrix(1 0 0 1 -17.80895 -17.80894)"  x1="0" y1="17.808936604499838" x2="35.61787117399309" y2="17.808936604499838">
<stop offset="0%" style="stop-color:#646464;stop-opacity: 1"/>
<stop offset="50%" style="stop-color:#3D3D3D;stop-opacity: 1"/>
<stop offset="100%" style="stop-color:#212121;stop-opacity: 1"/>
</linearGradient>
<path style="stroke: rgb(141,203,147); stroke-width: 0; stroke-dasharray: none; stroke-linecap: butt; stroke-dashoffset: 0; stroke-linejoin: miter; stroke-miterlimit: 4; fill: url(#SVGID_175_0_0); fill-rule: nonzero; opacity: 1;"  transform=" translate(0.000015, 0.000005)" d="M -17.80894 -14.58865 C -17.80894 -16.367169999999998 -13.096779999999999 -17.80894 -7.28403 -17.80894 L 6.5372900000000005 -17.80894 L 6.5372900000000005 -17.80894 C 12.762440000000002 -17.80894 17.80892 -16.264879999999998 17.80892 -14.36018 L 17.80892 14.88457 L 17.80892 14.88457 C 17.80892 16.49965 13.529770000000001 17.80893 8.25118 17.80893 L -8.297880000000001 17.80893 L -8.297880000000001 17.80893 C -13.5507 17.80893 -17.808950000000003 16.50604 -17.808950000000003 14.89885 z" stroke-linecap="round" />
</g>
<g transform="matrix(0.2591875566 0 0 0.847106628 13.0700691296 50.674752304)" id="h4-Hu9Jq1kMOPmA2ZUl34"  >
<linearGradient id="SVGID_6_1" gradientUnits="userSpaceOnUse" gradientTransform="matrix(1 0 0 1 -17.80895 -17.80894)"  x1="0" y1="17.808936604499838" x2="35.61787117399309" y2="17.808936604499838">
<stop offset="0%" style="stop-color:#646464;stop-opacity: 1"/>
<stop offset="50%" style="stop-color:#3D3D3D;stop-opacity: 1"/>
<stop offset="100%" style="stop-color:#212121;stop-opacity: 1"/>
</linearGradient>
<path style="stroke: rgb(141,203,147); stroke-width: 0; stroke-dasharray: none; stroke-linecap: butt; stroke-dashoffset: 0; stroke-linejoin: miter; stroke-miterlimit: 4; fill: url(#SVGID_6_1); fill-rule: nonzero; opacity: 1;"  transform=" translate(0.000015, 0.000005)" d="M -17.80894 -14.58865 C -17.80894 -16.367169999999998 -13.096779999999999 -17.80894 -7.28403 -17.80894 L 6.5372900000000005 -17.80894 L 6.5372900000000005 -17.80894 C 12.762440000000002 -17.80894 17.80892 -16.264879999999998 17.80892 -14.36018 L 17.80892 14.88457 L 17.80892 14.88457 C 17.80892 16.49965 13.529770000000001 17.80893 8.25118 17.80893 L -8.297880000000001 17.80893 L -8.297880000000001 17.80893 C -13.5507 17.80893 -17.808950000000003 16.50604 -17.808950000000003 14.89885 z" stroke-linecap="round" />
</g>
<g transform="matrix(-0.4400370857 0 0 1.4381798906 74.4774848191 49.9999976923)" id="62b0u-V9964Ug0mGqsVya"  >
<linearGradient id="SVGID_17_2" gradientUnits="userSpaceOnUse" gradientTransform="matrix(1 0 0 1 -17.80894 -17.80894)"  x1="0" y1="17.808936604499838" x2="35.61787117399309" y2="17.808936604499838">
<stop offset="0%" style="stop-color:#646464;stop-opacity: 1"/>
<stop offset="50%" style="stop-color:#3D3D3D;stop-opacity: 1"/>
<stop offset="100%" style="stop-color:#212121;stop-opacity: 1"/>
</linearGradient>
<path style="stroke: rgb(141,203,147); stroke-width: 0; stroke-dasharray: none; stroke-linecap: butt; stroke-dashoffset: 0; stroke-linejoin: miter; stroke-miterlimit: 4; fill: url(#SVGID_17_2); fill-rule: nonzero; opacity: 1;"  transform=" translate(0.000005, 0.000005)" d="M -17.80894 -14.58865 C -17.80894 -15.44272 -16.70007 -16.26182 -14.72626 -16.86574 C -12.75246 -17.469659999999998 -10.0754 -17.80894 -7.28402 -17.80894 L 6.5373 -17.80894 L 6.5373 -17.80894 C 12.762450000000001 -17.80894 17.80893 -16.264879999999998 17.80893 -14.36018 L 17.80893 14.88457 L 17.80893 14.88457 C 17.80893 16.49965 13.52978 17.80893 8.25119 17.80893 L -8.297870000000001 17.80893 L -8.297870000000001 17.80893 C -13.550690000000001 17.80893 -17.80894 16.50604 -17.80894 14.89885 z" stroke-linecap="round" />
</g>
<g transform="matrix(-0.2591875566 0 0 0.847106628 86.9299310233 49.9999976923)" id="qo1L79W32L_X-Zv3t6RlI"  >
<linearGradient id="SVGID_18_3" gradientUnits="userSpaceOnUse" gradientTransform="matrix(1 0 0 1 -17.80895 -17.80894)"  x1="0" y1="17.808936604499838" x2="35.61787117399309" y2="17.808936604499838">
<stop offset="0%" style="stop-color:#646464;stop-opacity: 1"/>
<stop offset="50%" style="stop-color:#3D3D3D;stop-opacity: 1"/>
<stop offset="100%" style="stop-color:#212121;stop-opacity: 1"/>
</linearGradient>
<path style="stroke: rgb(141,203,147); stroke-width: 0; stroke-dasharray: none; stroke-linecap: butt; stroke-dashoffset: 0; stroke-linejoin: miter; stroke-miterlimit: 4; fill: url(#SVGID_18_3); fill-rule: nonzero; opacity: 1;"  transform=" translate(0.000015, 0.000005)" d="M -17.80894 -14.58865 C -17.80894 -16.367169999999998 -13.096779999999999 -17.80894 -7.28403 -17.80894 L 6.5372900000000005 -17.80894 L 6.5372900000000005 -17.80894 C 12.762440000000002 -17.80894 17.80892 -16.264879999999998 17.80892 -14.36018 L 17.80892 14.88457 L 17.80892 14.88457 C 17.80892 16.49965 13.529770000000001 17.80893 8.25118 17.80893 L -8.297880000000001 17.80893 L -8.297880000000001 17.80893 C -13.5507 17.80893 -17.808950000000003 16.50604 -17.808950000000003 14.89885 z" stroke-linecap="round" />
</g>
<g transform="matrix(3.2050359055 0 0 0.749551346 50.0000004107 50.674752304)" id="aMeUwySCdk_7Lc77GIGER"  >
<path style="stroke: rgb(10,160,207); stroke-width: 0; stroke-dasharray: none; stroke-linecap: butt; stroke-dashoffset: 0; stroke-linejoin: miter; stroke-miterlimit: 4; fill: rgb(81,81,81); fill-rule: nonzero; opacity: 1;"  transform=" translate(0, 0)" d="M -5.19211 -5.19211 L 5.19211 -5.19211 L 5.19211 5.19211 L -5.19211 5.19211 z" stroke-linecap="round" />
</g>
</svg>